<?xml version="1.0" encoding="UTF-8"?>
<!DOCTYPE svg PUBLIC "-//W3C//DTD SVG 1.1//EN" "http://www.w3.org/Graphics/SVG/1.1/DTD/svg11.dtd">
<!-- Creator: CorelDRAW 2018 (64 Bit) -->
<svg xmlns="http://www.w3.org/2000/svg" xml:space="preserve" width="100px" height="100px" version="1.1" style="shape-rendering:geometricPrecision; text-rendering:geometricPrecision; image-rendering:optimizeQuality; fill-rule:evenodd; clip-rule:evenodd"
viewBox="0 0 280.34 280.34"
 xmlns:xlink="http://www.w3.org/1999/xlink">
 <defs>
  <style type="text/css">
   <![CDATA[
    .str0 {stroke:#373435;stroke-width:0.85;stroke-miterlimit:22.9256}
    .fil0 {fill:#333333}
   ]]>
  </style>
 </defs>
 <g id="Capa_x0020_1">
  <metadata id="CorelCorpID_0Corel-Layer"/>
  <path class="fil0" d="M134.22 73.79c-15.67,2.04 -30.89,7.12 -39.3,20.6 -3.98,6.38 -6.04,15.49 -4.32,24.38 1.71,8.9 6.65,14.36 11.62,18.53 4.86,4.09 12.21,7.84 19.45,10.5 7.56,2.78 15.33,4.48 23.24,6.9 7.18,2.21 15.63,5.86 16.67,13.25 1.17,8.27 -7.36,14.54 -14.32,15.7l-0.03 -21.63c-1.95,-1.06 -10.36,-3.43 -12.93,-3.85l-0.01 24.41c-4.45,-1.52 -8.04,-5.65 -10.17,-9.45 -2.93,-5.22 -2.34,-9.96 -10.66,-8.98 -5.91,0.7 -11.79,1.37 -17.68,2.06 -6.43,0.75 -11.39,1.58 -8.85,9.45 3.29,10.21 9.7,17.89 16.95,22.44 8.98,5.62 18.15,7.64 30.41,8.99 0,2.37 -0.29,7.75 0.44,9.61 0.85,2.18 3.02,4.13 6.08,4.11 2.9,-0.01 5.11,-1.94 5.96,-4.04 0.77,-1.92 0.46,-7.28 0.46,-9.76 18.16,-1.06 33.35,-9.14 40.71,-19.2 9.47,-12.94 10.02,-34.23 -0.14,-45.47 -10.47,-11.59 -25.55,-14.82 -40.9,-18.98 -7.81,-2.11 -16.48,-4.49 -20.68,-9.28 -2.58,-2.92 -3.17,-7.39 -0.92,-11.18 1.39,-2.33 5.16,-5.58 8.98,-6.15l0.01 15.96c2.49,0.88 10.48,4.32 12.93,4.27l0.01 -18.85c1.94,0.62 3.74,2.28 4.93,3.4 1.45,1.36 2.44,2.77 3.79,4.49 3.6,4.56 4.94,4.4 12.17,3.28 4.87,-0.76 9.69,-1.53 14.5,-2.28 5.79,-0.91 9.09,-1.92 6.51,-8.37 -6.11,-15.26 -20.95,-23.72 -41.77,-25.06 -0.67,-2.41 0.45,-6.82 -0.52,-9.48 -1.99,-5.48 -10.01,-5.7 -12.13,-0.07 -0.97,2.57 -0.03,6.91 -0.49,9.75z"/>
  <path class="fil0 str0" d="M140.17 0.43c77.18,0 139.74,62.56 139.74,139.74 0,77.18 -62.56,139.74 -139.74,139.74 -77.18,0 -139.74,-62.56 -139.74,-139.74 0,-77.18 62.56,-139.74 139.74,-139.74zm0 18.06c67.2,0 121.68,54.48 121.68,121.68 0,67.2 -54.48,121.68 -121.68,121.68 -67.2,0 -121.68,-54.48 -121.68,-121.68 0,-67.2 54.48,-121.68 121.68,-121.68z"/>
 </g>
</svg>
