<?xml version="1.0" encoding="UTF-8"?>
<!DOCTYPE svg PUBLIC "-//W3C//DTD SVG 1.1//EN" "http://www.w3.org/Graphics/SVG/1.1/DTD/svg11.dtd">
<!-- Creator: CorelDRAW 2018 (64 Bit) -->
<svg xmlns="http://www.w3.org/2000/svg" xml:space="preserve" width="100px" height="100px" version="1.1" style="shape-rendering:geometricPrecision; text-rendering:geometricPrecision; image-rendering:optimizeQuality; fill-rule:evenodd; clip-rule:evenodd"
viewBox="0 0 32.78 32.78"
 xmlns:xlink="http://www.w3.org/1999/xlink">
 <defs>
  <style type="text/css">
   <![CDATA[
    .str0 {stroke:#373435;stroke-width:0.1;stroke-miterlimit:22.9256}
    .fil0 {fill:#333333}
    .fil1 {fill:#333333}
   ]]>
  </style>
 </defs>
 <g id="Capa_x0020_1">
  <metadata id="CorelCorpID_0Corel-Layer"/>
  <g id="_2642392251616">
   <g>
    <path class="fil0" d="M6.33 12.96l0 8.92c0.41,0.3 8.93,3.72 9.78,3.94l0 -10.57c-0.1,-0.38 -4.2,-1.84 -4.8,-2.08 -1.35,-0.54 -3.62,-1.62 -4.98,-1.95l0 1.74z"/>
    <path class="fil0" d="M22.63 12.73l0 2.75c-0.29,0.59 0.04,0.01 -0.36,0.16 -0.17,0.06 -0.07,-0.11 -0.4,0.37l-0.49 -0.15 -0.33 0.47c-0.65,-0.13 -0.31,-0.28 -0.82,0.29l-0.03 -2.92 -3.53 1.39 0 10.73 9.77 -3.88 0.01 -10.69c-0.51,0.06 -3.3,1.22 -3.82,1.48z"/>
    <path class="fil0" d="M12.69 8.39c0.71,0.42 2.48,1.05 3.3,1.36l4.98 1.99c0.65,0.25 1.09,0.6 1.67,0.37 0.84,-0.34 2.74,-1.02 3.36,-1.4 -2.1,-0.93 -4.47,-1.83 -6.6,-2.66 -1.04,-0.39 -2.74,-1.3 -3.43,-1.05 -0.6,0.22 -2.98,1.12 -3.28,1.39z"/>
    <path class="fil0" d="M6.79 10.66c0.31,0.29 1.11,0.54 1.53,0.7 0.55,0.22 1.04,0.42 1.63,0.66 1.1,0.44 2.17,0.86 3.26,1.3 0.57,0.23 2.85,1.26 3.3,1.2 0.32,-0.04 3.01,-1.15 3.23,-1.33 -1.98,-0.89 -4.25,-1.69 -6.35,-2.55 -0.51,-0.21 -2.91,-1.23 -3.24,-1.22 -0.55,0 -2.62,1.05 -3.36,1.24z"/>
   </g>
   <path class="fil1 str0" d="M16.39 0.05c9.02,0 16.34,7.31 16.34,16.34 0,9.02 -7.32,16.34 -16.34,16.34 -9.03,0 -16.34,-7.32 -16.34,-16.34 0,-9.03 7.31,-16.34 16.34,-16.34zm0 2.11c7.86,0 14.23,6.37 14.23,14.23 0,7.86 -6.37,14.23 -14.23,14.23 -7.86,0 -14.23,-6.37 -14.23,-14.23 0,-7.86 6.37,-14.23 14.23,-14.23z"/>
  </g>
 </g>
</svg>
